<svg xmlns="http://www.w3.org/2000/svg" viewBox="0 0 512 512" role="img" aria-labelledby="title desc">
  <title id="title">English Through Projects icon</title>
  <desc id="desc">A colorful project learning icon with waves, code, music, and research symbols.</desc>
  <rect width="512" height="512" rx="96" fill="#0f172a"/>
  <path d="M80 350c48-48 96-48 144 0s96 48 144 0 96-48 144 0v82H80z" fill="#14b8a6"/>
  <path d="M80 302c48-44 96-44 144 0s96 44 144 0 96-44 144 0v46c-48-44-96-44-144 0s-96 44-144 0-96-44-144 0z" fill="#38bdf8"/>
  <path d="M145 146l-46 46 46 46" fill="none" stroke="#f8fafc" stroke-width="28" stroke-linecap="round" stroke-linejoin="round"/>
  <path d="M367 146l46 46-46 46" fill="none" stroke="#f8fafc" stroke-width="28" stroke-linecap="round" stroke-linejoin="round"/>
  <path d="M236 252l40-120" fill="none" stroke="#facc15" stroke-width="24" stroke-linecap="round"/>
  <circle cx="323" cy="236" r="24" fill="#fb7185"/>
  <path d="M347 236V124h50" fill="none" stroke="#fb7185" stroke-width="20" stroke-linecap="round" stroke-linejoin="round"/>
  <circle cx="176" cy="256" r="18" fill="#a78bfa"/>
  <path d="M176 256l32-55 48 84 28-45 24 40" fill="none" stroke="#a78bfa" stroke-width="14" stroke-linecap="round" stroke-linejoin="round"/>
</svg>
